<svg width="78" height="38" viewBox="0 0 78 38" fill="none" xmlns="http://www.w3.org/2000/svg">
<path fill-rule="evenodd" clip-rule="evenodd" d="M29.1249 12C29.1249 6.48 33.5949 2 39.1249 2C44.6449 2 49.1249 6.48 49.1249 12C49.1249 17.53 44.6449 22 39.1249 22C33.5949 22 29.1249 17.53 29.1249 12ZM41.3549 13.83L42.9749 8.71C43.0849 8.36 42.7649 8.03 42.4149 8.14L37.2949 9.74C37.0849 9.81 36.9149 9.97 36.8549 10.18L35.2549 15.31C35.1449 15.65 35.4749 15.98 35.8149 15.87L40.9149 14.27C41.1249 14.21 41.2949 14.04 41.3549 13.83Z" fill="#6842FF"/>
<path d="M19.5816 36V29H21.9016C22.385 29 22.8366 29.0917 23.2566 29.275C23.68 29.455 24.0516 29.7067 24.3716 30.03C24.695 30.35 24.9466 30.7217 25.1266 31.145C25.31 31.565 25.4016 32.0167 25.4016 32.5C25.4016 32.9833 25.31 33.4367 25.1266 33.86C24.9466 34.28 24.695 34.6517 24.3716 34.975C24.0516 35.295 23.68 35.5467 23.2566 35.73C22.8366 35.91 22.385 36 21.9016 36H19.5816ZM20.8016 34.78H21.9016C22.2116 34.78 22.5033 34.7217 22.7766 34.605C23.0533 34.485 23.2966 34.3217 23.5066 34.115C23.7166 33.905 23.8816 33.6633 24.0016 33.39C24.1216 33.1133 24.1816 32.8167 24.1816 32.5C24.1816 32.1833 24.1216 31.8883 24.0016 31.615C23.8816 31.3417 23.7166 31.1 23.5066 30.89C23.2966 30.68 23.055 30.5167 22.7816 30.4C22.5083 30.28 22.215 30.22 21.9016 30.22H20.8016V34.78ZM26.4223 31H27.6423V36H26.4223V31ZM27.0373 30.255C26.8606 30.255 26.7106 30.1967 26.5873 30.08C26.4639 29.96 26.4023 29.81 26.4023 29.63C26.4023 29.4533 26.4639 29.305 26.5873 29.185C26.7106 29.065 26.8606 29.005 27.0373 29.005C27.2139 29.005 27.3623 29.065 27.4823 29.185C27.6056 29.305 27.6673 29.4533 27.6673 29.63C27.6673 29.81 27.6056 29.96 27.4823 30.08C27.3623 30.1967 27.2139 30.255 27.0373 30.255ZM30.9598 36.09C30.6998 36.0733 30.4481 36.0217 30.2048 35.935C29.9648 35.845 29.7514 35.7233 29.5648 35.57C29.3781 35.4167 29.2348 35.2333 29.1348 35.02L30.1648 34.58C30.2048 34.6467 30.2698 34.7183 30.3598 34.795C30.4498 34.8683 30.5564 34.93 30.6798 34.98C30.8064 35.03 30.9448 35.055 31.0948 35.055C31.2214 35.055 31.3414 35.0383 31.4548 35.005C31.5714 34.9683 31.6648 34.9133 31.7348 34.84C31.8081 34.7667 31.8448 34.6717 31.8448 34.555C31.8448 34.4317 31.8014 34.3367 31.7148 34.27C31.6314 34.2 31.5248 34.1483 31.3948 34.115C31.2681 34.0783 31.1448 34.045 31.0248 34.015C30.7081 33.9517 30.4131 33.8533 30.1398 33.72C29.8698 33.5867 29.6514 33.415 29.4848 33.205C29.3214 32.9917 29.2398 32.735 29.2398 32.435C29.2398 32.105 29.3264 31.82 29.4998 31.58C29.6731 31.34 29.9014 31.155 30.1848 31.025C30.4681 30.895 30.7731 30.83 31.0998 30.83C31.4964 30.83 31.8598 30.9133 32.1898 31.08C32.5231 31.2433 32.7864 31.475 32.9798 31.775L32.0148 32.345C31.9681 32.265 31.9031 32.1917 31.8198 32.125C31.7364 32.055 31.6414 31.9983 31.5348 31.955C31.4281 31.9083 31.3164 31.8817 31.1998 31.875C31.0498 31.8683 30.9131 31.8817 30.7898 31.915C30.6664 31.9483 30.5664 32.005 30.4898 32.085C30.4164 32.165 30.3798 32.2717 30.3798 32.405C30.3798 32.5317 30.4298 32.6267 30.5298 32.69C30.6298 32.75 30.7498 32.7967 30.8898 32.83C31.0331 32.8633 31.1698 32.9 31.2998 32.94C31.5931 33.0367 31.8681 33.155 32.1248 33.295C32.3848 33.435 32.5931 33.6067 32.7498 33.81C32.9064 34.0133 32.9814 34.2567 32.9748 34.54C32.9748 34.8633 32.8781 35.1467 32.6848 35.39C32.4914 35.63 32.2414 35.8133 31.9348 35.94C31.6314 36.0667 31.3064 36.1167 30.9598 36.09ZM37.1 34.495L38.2 35.09C37.97 35.4033 37.6817 35.655 37.335 35.845C36.9883 36.035 36.61 36.13 36.2 36.13C35.74 36.13 35.32 36.0117 34.94 35.775C34.5633 35.5383 34.2617 35.2217 34.035 34.825C33.8117 34.425 33.7 33.9833 33.7 33.5C33.7 33.1333 33.765 32.7917 33.895 32.475C34.025 32.155 34.2033 31.875 34.43 31.635C34.66 31.3917 34.9267 31.2017 35.23 31.065C35.5333 30.9283 35.8567 30.86 36.2 30.86C36.61 30.86 36.9883 30.955 37.335 31.145C37.6817 31.335 37.97 31.59 38.2 31.91L37.1 32.5C36.9833 32.3667 36.845 32.2633 36.685 32.19C36.5283 32.1167 36.3667 32.08 36.2 32.08C35.96 32.08 35.7433 32.1467 35.55 32.28C35.3567 32.41 35.2033 32.5833 35.09 32.8C34.9767 33.0133 34.92 33.2467 34.92 33.5C34.92 33.75 34.9767 33.9833 35.09 34.2C35.2033 34.4133 35.3567 34.585 35.55 34.715C35.7433 34.845 35.96 34.91 36.2 34.91C36.3733 34.91 36.5383 34.8733 36.695 34.8C36.8517 34.7233 36.9867 34.6217 37.1 34.495ZM41.3023 36.13C40.8423 36.13 40.4223 36.0117 40.0423 35.775C39.6657 35.5383 39.364 35.2217 39.1373 34.825C38.914 34.425 38.8023 33.9833 38.8023 33.5C38.8023 33.1333 38.8673 32.7917 38.9973 32.475C39.1273 32.155 39.3057 31.875 39.5323 31.635C39.7623 31.3917 40.029 31.2017 40.3323 31.065C40.6357 30.9283 40.959 30.86 41.3023 30.86C41.7623 30.86 42.1807 30.9783 42.5573 31.215C42.9373 31.4517 43.239 31.77 43.4623 32.17C43.689 32.57 43.8023 33.0133 43.8023 33.5C43.8023 33.8633 43.7373 34.2033 43.6073 34.52C43.4773 34.8367 43.2973 35.1167 43.0673 35.36C42.8407 35.6 42.5757 35.7883 42.2723 35.925C41.9723 36.0617 41.649 36.13 41.3023 36.13ZM41.3023 34.91C41.5457 34.91 41.764 34.845 41.9573 34.715C42.1507 34.585 42.3023 34.4133 42.4123 34.2C42.5257 33.9867 42.5823 33.7533 42.5823 33.5C42.5823 33.24 42.524 33.0033 42.4073 32.79C42.294 32.5733 42.139 32.4017 41.9423 32.275C41.749 32.145 41.5357 32.08 41.3023 32.08C41.0623 32.08 40.8457 32.145 40.6523 32.275C40.459 32.405 40.3057 32.5783 40.1923 32.795C40.079 33.0117 40.0223 33.2467 40.0223 33.5C40.0223 33.7633 40.0807 34.0017 40.1973 34.215C40.314 34.4283 40.469 34.5983 40.6623 34.725C40.859 34.8483 41.0723 34.91 41.3023 34.91ZM47.7196 36H46.1446L44.3246 30.995H45.6246L46.9346 34.595L48.2396 30.995H49.5396L47.7196 36ZM52.4055 36.13C51.9455 36.13 51.5255 36.0117 51.1455 35.775C50.7688 35.5383 50.4671 35.22 50.2405 34.82C50.0171 34.42 49.9055 33.9783 49.9055 33.495C49.9055 33.1317 49.9705 32.7917 50.1005 32.475C50.2305 32.155 50.4088 31.875 50.6355 31.635C50.8655 31.3917 51.1321 31.2017 51.4355 31.065C51.7388 30.9283 52.0621 30.86 52.4055 30.86C52.7955 30.86 53.1521 30.9433 53.4755 31.11C53.8021 31.2733 54.0788 31.4983 54.3055 31.785C54.5321 32.0717 54.6971 32.3983 54.8005 32.765C54.9038 33.1317 54.9271 33.515 54.8705 33.915H51.2155C51.2621 34.1017 51.3388 34.27 51.4455 34.42C51.5521 34.5667 51.6871 34.685 51.8505 34.775C52.0138 34.8617 52.1988 34.9067 52.4055 34.91C52.6188 34.9133 52.8121 34.8633 52.9855 34.76C53.1621 34.6533 53.3088 34.51 53.4255 34.33L54.6705 34.62C54.4671 35.0633 54.1638 35.4267 53.7605 35.71C53.3571 35.99 52.9055 36.13 52.4055 36.13ZM51.1755 33H53.6355C53.5988 32.8 53.5205 32.62 53.4005 32.46C53.2838 32.2967 53.1388 32.1667 52.9655 32.07C52.7921 31.9733 52.6055 31.925 52.4055 31.925C52.2055 31.925 52.0205 31.9733 51.8505 32.07C51.6805 32.1633 51.5355 32.2917 51.4155 32.455C51.2988 32.615 51.2188 32.7967 51.1755 33ZM58.924 32.24C58.834 32.18 58.7357 32.1317 58.629 32.095C58.5257 32.0583 58.4107 32.04 58.284 32.04C58.0407 32.04 57.8307 32.1033 57.654 32.23C57.4807 32.3567 57.3473 32.5267 57.254 32.74C57.1607 32.95 57.114 33.1833 57.114 33.44V36H55.884V31H57.104V31.59C57.2707 31.37 57.469 31.195 57.699 31.065C57.9323 30.935 58.1957 30.87 58.489 30.87C58.6023 30.87 58.7107 30.8733 58.814 30.88C58.9207 30.8867 59.0223 30.905 59.119 30.935L58.924 32.24Z" fill="#6842FF"/>
</svg>
