<svg width="78" height="38" viewBox="0 0 78 38" fill="none" xmlns="http://www.w3.org/2000/svg">
<path fill-rule="evenodd" clip-rule="evenodd" d="M35.395 14.9519L36.9877 9.8627L42.0769 8.27002L40.4843 13.3593L35.395 14.9519Z" stroke="#9E9E9E" stroke-width="1.5" stroke-linecap="round" stroke-linejoin="round"/>
<circle cx="38.736" cy="11.611" r="9.61098" stroke="#9E9E9E" stroke-width="1.5" stroke-linecap="round" stroke-linejoin="round"/>
<path d="M20.0846 36V29H22.3996C22.8829 29 23.3362 29.0917 23.7596 29.275C24.1829 29.455 24.5546 29.7067 24.8746 30.03C25.1946 30.35 25.4446 30.7217 25.6246 31.145C25.8079 31.565 25.8996 32.0167 25.8996 32.5C25.8996 32.9833 25.8079 33.4367 25.6246 33.86C25.4446 34.28 25.1946 34.6517 24.8746 34.975C24.5546 35.295 24.1829 35.5467 23.7596 35.73C23.3362 35.91 22.8829 36 22.3996 36H20.0846ZM20.9246 35.16H22.3996C22.7662 35.16 23.1096 35.0917 23.4296 34.955C23.7529 34.815 24.0362 34.6233 24.2796 34.38C24.5229 34.1367 24.7129 33.855 24.8496 33.535C24.9896 33.2117 25.0596 32.8667 25.0596 32.5C25.0596 32.1333 24.9896 31.79 24.8496 31.47C24.7129 31.1467 24.5212 30.8633 24.2746 30.62C24.0312 30.3767 23.7496 30.1867 23.4296 30.05C23.1096 29.91 22.7662 29.84 22.3996 29.84H20.9246V35.16ZM26.9545 31H27.7945V36H26.9545V31ZM27.3795 30.085C27.2495 30.085 27.1395 30.0417 27.0495 29.955C26.9595 29.8683 26.9145 29.76 26.9145 29.63C26.9145 29.5 26.9595 29.3917 27.0495 29.305C27.1395 29.2183 27.2495 29.175 27.3795 29.175C27.5095 29.175 27.6195 29.2183 27.7095 29.305C27.7995 29.3917 27.8445 29.5 27.8445 29.63C27.8445 29.76 27.7995 29.8683 27.7095 29.955C27.6195 30.0417 27.5095 30.085 27.3795 30.085ZM30.9951 36.095C30.7251 36.085 30.4618 36.035 30.2051 35.945C29.9518 35.8517 29.7284 35.7267 29.5351 35.57C29.3451 35.41 29.2068 35.2267 29.1201 35.02L29.8401 34.71C29.8901 34.8233 29.9801 34.93 30.1101 35.03C30.2401 35.13 30.3901 35.21 30.5601 35.27C30.7301 35.33 30.9018 35.36 31.0751 35.36C31.2584 35.36 31.4301 35.3317 31.5901 35.275C31.7501 35.2183 31.8801 35.135 31.9801 35.025C32.0834 34.9117 32.1351 34.7767 32.1351 34.62C32.1351 34.4533 32.0784 34.3233 31.9651 34.23C31.8551 34.1333 31.7151 34.0583 31.5451 34.005C31.3784 33.9483 31.2084 33.895 31.0351 33.845C30.6918 33.7583 30.3851 33.655 30.1151 33.535C29.8451 33.4117 29.6318 33.2567 29.4751 33.07C29.3218 32.88 29.2451 32.6383 29.2451 32.345C29.2451 32.035 29.3301 31.7667 29.5001 31.54C29.6734 31.3133 29.9001 31.1383 30.1801 31.015C30.4601 30.8917 30.7601 30.83 31.0801 30.83C31.4834 30.83 31.8518 30.9167 32.1851 31.09C32.5184 31.2633 32.7668 31.4983 32.9301 31.795L32.2551 32.19C32.1984 32.07 32.1118 31.965 31.9951 31.875C31.8784 31.7817 31.7451 31.7083 31.5951 31.655C31.4451 31.6017 31.2918 31.5733 31.1351 31.57C30.9418 31.5633 30.7601 31.5883 30.5901 31.645C30.4234 31.7017 30.2884 31.7883 30.1851 31.905C30.0851 32.0183 30.0351 32.16 30.0351 32.33C30.0351 32.4967 30.0884 32.6233 30.1951 32.71C30.3051 32.7967 30.4468 32.8667 30.6201 32.92C30.7968 32.97 30.9884 33.0283 31.1951 33.095C31.4984 33.1917 31.7818 33.3033 32.0451 33.43C32.3084 33.5567 32.5201 33.715 32.6801 33.905C32.8434 34.095 32.9234 34.33 32.9201 34.61C32.9201 34.9167 32.8284 35.185 32.6451 35.415C32.4618 35.6417 32.2234 35.815 31.9301 35.935C31.6401 36.055 31.3284 36.1083 30.9951 36.095ZM37.4304 34.68L38.1804 35.085C37.9537 35.4017 37.6654 35.655 37.3154 35.845C36.9687 36.035 36.592 36.13 36.1854 36.13C35.7254 36.13 35.3054 36.0117 34.9254 35.775C34.5487 35.5383 34.247 35.2217 34.0204 34.825C33.797 34.425 33.6854 33.9833 33.6854 33.5C33.6854 33.1333 33.7504 32.7917 33.8804 32.475C34.0104 32.155 34.1887 31.875 34.4154 31.635C34.6454 31.3917 34.912 31.2017 35.2154 31.065C35.5187 30.9283 35.842 30.86 36.1854 30.86C36.592 30.86 36.9687 30.955 37.3154 31.145C37.6654 31.335 37.9537 31.59 38.1804 31.91L37.4304 32.315C37.2704 32.1183 37.0804 31.9667 36.8604 31.86C36.6404 31.7533 36.4154 31.7 36.1854 31.7C35.8754 31.7 35.5937 31.7833 35.3404 31.95C35.0904 32.1133 34.892 32.3317 34.7454 32.605C34.5987 32.8783 34.5254 33.1767 34.5254 33.5C34.5254 33.8233 34.5987 34.1217 34.7454 34.395C34.8954 34.665 35.0954 34.8817 35.3454 35.045C35.5987 35.2083 35.8787 35.29 36.1854 35.29C36.432 35.29 36.6637 35.2333 36.8804 35.12C37.097 35.0067 37.2804 34.86 37.4304 34.68ZM41.3658 36.13C40.9058 36.13 40.4858 36.0117 40.1058 35.775C39.7292 35.5383 39.4275 35.2217 39.2008 34.825C38.9775 34.425 38.8658 33.9833 38.8658 33.5C38.8658 33.1333 38.9308 32.7917 39.0608 32.475C39.1908 32.155 39.3692 31.875 39.5958 31.635C39.8258 31.3917 40.0925 31.2017 40.3958 31.065C40.6992 30.9283 41.0225 30.86 41.3658 30.86C41.8258 30.86 42.2442 30.9783 42.6208 31.215C43.0008 31.4517 43.3025 31.77 43.5258 32.17C43.7525 32.57 43.8658 33.0133 43.8658 33.5C43.8658 33.8633 43.8008 34.2033 43.6708 34.52C43.5408 34.8367 43.3608 35.1167 43.1308 35.36C42.9042 35.6 42.6392 35.7883 42.3358 35.925C42.0358 36.0617 41.7125 36.13 41.3658 36.13ZM41.3658 35.29C41.6792 35.29 41.9608 35.2083 42.2108 35.045C42.4642 34.8783 42.6625 34.66 42.8058 34.39C42.9525 34.1167 43.0258 33.82 43.0258 33.5C43.0258 33.1733 42.9508 32.8733 42.8008 32.6C42.6542 32.3267 42.4558 32.1083 42.2058 31.945C41.9558 31.7817 41.6758 31.7 41.3658 31.7C41.0525 31.7 40.7708 31.7833 40.5208 31.95C40.2708 32.1133 40.0725 32.3317 39.9258 32.605C39.7792 32.8783 39.7058 33.1767 39.7058 33.5C39.7058 33.8333 39.7808 34.1367 39.9308 34.41C40.0808 34.68 40.2825 34.895 40.5358 35.055C40.7892 35.2117 41.0658 35.29 41.3658 35.29ZM47.3174 36H46.2424L44.4174 30.99H45.3124L46.7774 35.025L48.2424 30.99H49.1374L47.3174 36ZM52.0979 36.13C51.6379 36.13 51.2179 36.0117 50.8379 35.775C50.4612 35.5383 50.1595 35.2217 49.9329 34.825C49.7095 34.425 49.5979 33.9833 49.5979 33.5C49.5979 33.1333 49.6629 32.7917 49.7929 32.475C49.9229 32.155 50.1012 31.875 50.3279 31.635C50.5579 31.3917 50.8245 31.2017 51.1279 31.065C51.4312 30.9283 51.7545 30.86 52.0979 30.86C52.4745 30.86 52.8195 30.9367 53.1329 31.09C53.4495 31.24 53.7195 31.45 53.9429 31.72C54.1695 31.99 54.3379 32.3033 54.4479 32.66C54.5612 33.0167 54.6029 33.3983 54.5729 33.805H50.4929C50.5329 34.0883 50.6262 34.3417 50.7729 34.565C50.9195 34.785 51.1062 34.96 51.3329 35.09C51.5629 35.22 51.8179 35.2867 52.0979 35.29C52.3979 35.29 52.6695 35.2133 52.9129 35.06C53.1562 34.9033 53.3529 34.69 53.5029 34.42L54.3579 34.62C54.1579 35.0633 53.8562 35.4267 53.4529 35.71C53.0495 35.99 52.5979 36.13 52.0979 36.13ZM50.4679 33.145H53.7279C53.7012 32.865 53.6112 32.61 53.4579 32.38C53.3045 32.1467 53.1095 31.96 52.8729 31.82C52.6362 31.68 52.3779 31.61 52.0979 31.61C51.8179 31.61 51.5612 31.6783 51.3279 31.815C51.0945 31.9517 50.9012 32.1367 50.7479 32.37C50.5979 32.6 50.5045 32.8583 50.4679 33.145ZM58.4852 31.83C58.4019 31.7833 58.3119 31.7467 58.2152 31.72C58.1185 31.6933 58.0135 31.68 57.9002 31.68C57.6235 31.68 57.3769 31.755 57.1602 31.905C56.9469 32.055 56.7785 32.2583 56.6552 32.515C56.5319 32.7717 56.4702 33.055 56.4702 33.365V36H55.6252V31H56.4652V31.77C56.6452 31.49 56.8685 31.27 57.1352 31.11C57.4019 30.9467 57.6969 30.865 58.0202 30.865C58.1302 30.865 58.2352 30.87 58.3352 30.88C58.4352 30.89 58.5302 30.91 58.6202 30.94L58.4852 31.83Z" fill="#9E9E9E"/>
</svg>
