<svg width="18" height="15" viewBox="0 0 18 15" fill="none" xmlns="http://www.w3.org/2000/svg">
<path fill-rule="evenodd" clip-rule="evenodd" d="M7.16941 10.2104C7.68981 10.5632 8.32404 10.7765 8.99892 10.7765C10.7878 10.7765 12.2433 9.30797 12.2433 7.50304C12.2433 6.82208 12.0318 6.18215 11.6822 5.65708L10.7959 6.55134C10.9423 6.83029 11.0236 7.15846 11.0236 7.50304C11.0236 8.62702 10.1129 9.54589 8.99892 9.54589C8.65741 9.54589 8.33217 9.46385 8.05571 9.31617L7.16941 10.2104ZM14.3574 2.95789C15.5364 4.04085 16.5365 5.5012 17.2846 7.25691C17.3496 7.41279 17.3496 7.59328 17.2846 7.74096C15.5445 11.8267 12.4465 14.2715 8.99892 14.2715H8.99079C7.42148 14.2715 5.91722 13.7547 4.59184 12.8112L3.01439 14.4028C2.89243 14.5259 2.73794 14.5833 2.58344 14.5833C2.42895 14.5833 2.26633 14.5259 2.15249 14.4028C1.94921 14.1977 1.91669 13.8695 2.07931 13.6316L2.10371 13.5988L14.1297 1.46472C14.1459 1.44831 14.1622 1.4319 14.1703 1.41549C14.1866 1.39908 14.2029 1.38268 14.211 1.36627L14.9753 0.595068C15.2193 0.357145 15.6014 0.357145 15.8372 0.595068C16.0812 0.832991 16.0812 1.22679 15.8372 1.46472L14.3574 2.95789ZM5.74866 7.50624C5.74866 7.71955 5.77305 7.93286 5.80558 8.12976L2.79705 11.1653C1.98393 10.2136 1.27652 9.06504 0.715474 7.74416C0.650425 7.59648 0.650425 7.41599 0.715474 7.26011C2.45554 3.1744 5.55351 0.73774 8.99299 0.73774H9.00112C10.1639 0.73774 11.2941 1.01668 12.3349 1.54176L9.61909 4.28197C9.42394 4.24915 9.21253 4.22454 9.00112 4.22454C7.20413 4.22454 5.74866 5.6931 5.74866 7.50624Z" fill="#9E9E9E"/>
</svg>
