<svg width="108" height="39" viewBox="0 0 108 39" fill="none" xmlns="http://www.w3.org/2000/svg">
<path d="M16.952 38.124C14.616 38.124 12.44 37.668 10.424 36.756C8.424 35.844 6.68 34.588 5.192 32.988C3.704 31.372 2.536 29.516 1.688 27.42C0.856 25.308 0.44 23.052 0.44 20.652C0.44 18.124 0.888 15.804 1.784 13.692C2.696 11.58 3.936 9.748 5.504 8.196C7.072 6.644 8.848 5.444 10.832 4.596C12.832 3.748 14.912 3.324 17.072 3.324C19.488 3.324 21.832 3.892 24.104 5.028C26.392 6.148 28.408 7.884 30.152 10.236L24.92 13.044C23.848 11.732 22.616 10.756 21.224 10.116C19.848 9.46 18.44 9.132 17 9.132C15.592 9.132 14.24 9.42 12.944 9.996C11.664 10.572 10.52 11.388 9.512 12.444C8.52 13.484 7.736 14.716 7.16 16.14C6.584 17.548 6.296 19.092 6.296 20.772C6.296 22.356 6.576 23.852 7.136 25.26C7.696 26.652 8.464 27.876 9.44 28.932C10.432 29.972 11.576 30.788 12.872 31.38C14.168 31.972 15.56 32.268 17.048 32.268C18.04 32.268 19.008 32.116 19.952 31.812C20.912 31.492 21.808 31.036 22.64 30.444C23.488 29.852 24.24 29.132 24.896 28.284C25.568 27.436 26.128 26.476 26.576 25.404H20.456V20.292H33.464C33.528 22.74 33.144 25.036 32.312 27.18C31.48 29.324 30.304 31.22 28.784 32.868C27.264 34.516 25.496 35.804 23.48 36.732C21.464 37.66 19.288 38.124 16.952 38.124ZM47.5963 38.124C45.3883 38.124 43.3723 37.556 41.5483 36.42C39.7403 35.284 38.2923 33.764 37.2043 31.86C36.1323 29.94 35.5963 27.82 35.5963 25.5C35.5963 23.74 35.9083 22.1 36.5323 20.58C37.1563 19.044 38.0123 17.7 39.1003 16.548C40.2043 15.38 41.4843 14.468 42.9403 13.812C44.3963 13.156 45.9483 12.828 47.5963 12.828C49.8043 12.828 51.8123 13.396 53.6203 14.532C55.4443 15.668 56.8923 17.196 57.9643 19.116C59.0523 21.036 59.5963 23.164 59.5963 25.5C59.5963 27.244 59.2843 28.876 58.6603 30.396C58.0363 31.916 57.1723 33.26 56.0683 34.428C54.9803 35.58 53.7083 36.484 52.2523 37.14C50.8123 37.796 49.2603 38.124 47.5963 38.124ZM47.5963 32.268C48.7643 32.268 49.8123 31.956 50.7403 31.332C51.6683 30.708 52.3963 29.884 52.9243 28.86C53.4683 27.836 53.7403 26.716 53.7403 25.5C53.7403 24.252 53.4603 23.116 52.9003 22.092C52.3563 21.052 51.6123 20.228 50.6683 19.62C49.7403 18.996 48.7163 18.684 47.5963 18.684C46.4443 18.684 45.4043 18.996 44.4763 19.62C43.5483 20.244 42.8123 21.076 42.2683 22.116C41.7243 23.156 41.4523 24.284 41.4523 25.5C41.4523 26.764 41.7323 27.908 42.2923 28.932C42.8523 29.956 43.5963 30.772 44.5243 31.38C45.4683 31.972 46.4923 32.268 47.5963 32.268ZM70.6876 8.46V13.5H77.2396V19.356H70.6876V37.5H64.8316V19.356H62.2156V13.5H64.8316V8.46C64.8316 7.084 65.1676 5.828 65.8396 4.692C66.5276 3.54 67.4476 2.628 68.5996 1.956C69.7516 1.268 71.0236 0.923999 72.4156 0.923999C73.4236 0.923999 74.4236 1.132 75.4156 1.548C76.4076 1.964 77.2876 2.604 78.0556 3.468L73.8316 7.596C73.6876 7.324 73.4796 7.124 73.2076 6.996C72.9516 6.852 72.6876 6.78 72.4156 6.78C71.9516 6.78 71.5436 6.948 71.1916 7.284C70.8556 7.604 70.6876 7.996 70.6876 8.46ZM81.005 13.5H86.861V37.5H81.005V13.5ZM83.957 9.924C83.109 9.924 82.389 9.644 81.797 9.084C81.205 8.508 80.909 7.788 80.909 6.924C80.909 6.076 81.205 5.364 81.797 4.788C82.389 4.212 83.109 3.924 83.957 3.924C84.805 3.924 85.517 4.212 86.093 4.788C86.685 5.364 86.981 6.076 86.981 6.924C86.981 7.788 86.685 8.508 86.093 9.084C85.517 9.644 84.805 9.924 83.957 9.924ZM107.744 19.356H103.088V37.5H97.232V19.356H93.68V13.5H97.232V5.964H103.088V13.5H107.744V19.356Z" fill="#212121"/>
</svg>
