<svg width="77" height="38" viewBox="0 0 77 38" fill="none" xmlns="http://www.w3.org/2000/svg">
<path d="M35.5098 20.7733V17.7156C35.5098 16.9351 36.1472 16.3023 36.9334 16.3023H39.8076C40.1852 16.3023 40.5473 16.4512 40.8143 16.7163C41.0813 16.9813 41.2313 17.3408 41.2313 17.7156V20.7733C41.2289 21.0978 41.3571 21.4099 41.5874 21.6402C41.8177 21.8705 42.1311 22 42.4579 22H44.4188C45.3346 22.0023 46.2138 21.6428 46.8622 21.0008C47.5106 20.3588 47.875 19.487 47.875 18.5778V9.86686C47.875 9.13246 47.5471 8.43584 46.9796 7.96467L40.309 2.67587C39.1487 1.74856 37.4861 1.7785 36.3604 2.74698L29.842 7.96467C29.2477 8.42195 28.8926 9.12064 28.875 9.86686V18.5689C28.875 20.4639 30.4224 22 32.3312 22H34.2473C34.9262 22 35.478 21.4562 35.4829 20.7822L35.5098 20.7733Z" fill="#6842FF"/>
<path d="M29.8409 29H31.0609V36H29.8409V32.86H26.9409V36H25.7209V29H26.9409V31.64H29.8409V29ZM34.4686 36.13C34.0086 36.13 33.5886 36.0117 33.2086 35.775C32.8319 35.5383 32.5302 35.2217 32.3036 34.825C32.0802 34.425 31.9686 33.9833 31.9686 33.5C31.9686 33.1333 32.0336 32.7917 32.1636 32.475C32.2936 32.155 32.4719 31.875 32.6986 31.635C32.9286 31.3917 33.1952 31.2017 33.4986 31.065C33.8019 30.9283 34.1252 30.86 34.4686 30.86C34.9286 30.86 35.3469 30.9783 35.7236 31.215C36.1036 31.4517 36.4052 31.77 36.6286 32.17C36.8552 32.57 36.9686 33.0133 36.9686 33.5C36.9686 33.8633 36.9036 34.2033 36.7736 34.52C36.6436 34.8367 36.4636 35.1167 36.2336 35.36C36.0069 35.6 35.7419 35.7883 35.4386 35.925C35.1386 36.0617 34.8152 36.13 34.4686 36.13ZM34.4686 34.91C34.7119 34.91 34.9302 34.845 35.1236 34.715C35.3169 34.585 35.4686 34.4133 35.5786 34.2C35.6919 33.9867 35.7486 33.7533 35.7486 33.5C35.7486 33.24 35.6902 33.0033 35.5736 32.79C35.4602 32.5733 35.3052 32.4017 35.1086 32.275C34.9152 32.145 34.7019 32.08 34.4686 32.08C34.2286 32.08 34.0119 32.145 33.8186 32.275C33.6252 32.405 33.4719 32.5783 33.3586 32.795C33.2452 33.0117 33.1886 33.2467 33.1886 33.5C33.1886 33.7633 33.2469 34.0017 33.3636 34.215C33.4802 34.4283 33.6352 34.5983 33.8286 34.725C34.0252 34.8483 34.2386 34.91 34.4686 34.91ZM37.7721 36V31H38.9921V31.505C39.1387 31.3417 39.2937 31.21 39.4571 31.11C39.6237 31.0067 39.8121 30.955 40.0221 30.955C40.3621 30.955 40.6721 31.0267 40.9521 31.17C41.2354 31.31 41.4787 31.51 41.6821 31.77C41.8854 31.51 42.1287 31.31 42.4121 31.17C42.6954 31.0267 43.0054 30.955 43.3421 30.955C43.7721 30.955 44.1554 31.0617 44.4921 31.275C44.8321 31.4883 45.1004 31.775 45.2971 32.135C45.4937 32.4917 45.5921 32.8867 45.5921 33.32V36H44.3721V33.32C44.3721 33.1067 44.3287 32.915 44.2421 32.745C44.1554 32.5717 44.0337 32.4333 43.8771 32.33C43.7237 32.2267 43.5454 32.175 43.3421 32.175C43.1387 32.175 42.9571 32.2267 42.7971 32.33C42.6404 32.4333 42.5171 32.5717 42.4271 32.745C42.3371 32.915 42.2921 33.1067 42.2921 33.32V36H41.0721V33.32C41.0721 33.1067 41.0254 32.915 40.9321 32.745C40.8421 32.5717 40.7171 32.4333 40.5571 32.33C40.4004 32.2267 40.2221 32.175 40.0221 32.175C39.8287 32.175 39.6537 32.2283 39.4971 32.335C39.3404 32.4417 39.2171 32.5833 39.1271 32.76C39.0371 32.9367 38.9921 33.13 38.9921 33.34V36H37.7721ZM48.8334 36.13C48.3734 36.13 47.9534 36.0117 47.5734 35.775C47.1967 35.5383 46.8951 35.22 46.6684 34.82C46.4451 34.42 46.3334 33.9783 46.3334 33.495C46.3334 33.1317 46.3984 32.7917 46.5284 32.475C46.6584 32.155 46.8367 31.875 47.0634 31.635C47.2934 31.3917 47.5601 31.2017 47.8634 31.065C48.1667 30.9283 48.4901 30.86 48.8334 30.86C49.2234 30.86 49.5801 30.9433 49.9034 31.11C50.2301 31.2733 50.5067 31.4983 50.7334 31.785C50.9601 32.0717 51.1251 32.3983 51.2284 32.765C51.3317 33.1317 51.3551 33.515 51.2984 33.915H47.6434C47.6901 34.1017 47.7667 34.27 47.8734 34.42C47.9801 34.5667 48.1151 34.685 48.2784 34.775C48.4417 34.8617 48.6267 34.9067 48.8334 34.91C49.0467 34.9133 49.2401 34.8633 49.4134 34.76C49.5901 34.6533 49.7367 34.51 49.8534 34.33L51.0984 34.62C50.8951 35.0633 50.5917 35.4267 50.1884 35.71C49.7851 35.99 49.3334 36.13 48.8334 36.13ZM47.6034 33H50.0634C50.0267 32.8 49.9484 32.62 49.8284 32.46C49.7117 32.2967 49.5667 32.1667 49.3934 32.07C49.2201 31.9733 49.0334 31.925 48.8334 31.925C48.6334 31.925 48.4484 31.9733 48.2784 32.07C48.1084 32.1633 47.9634 32.2917 47.8434 32.455C47.7267 32.615 47.6467 32.7967 47.6034 33Z" fill="#6842FF"/>
</svg>
