<svg width="78" height="39" viewBox="0 0 78 39" fill="none" xmlns="http://www.w3.org/2000/svg">
<path d="M34.2462 10.2017V17.0618" stroke="#9E9E9E" stroke-width="1.5" stroke-linecap="round" stroke-linejoin="round"/>
<path d="M38.9132 6.91919V17.0619" stroke="#9E9E9E" stroke-width="1.5" stroke-linecap="round" stroke-linejoin="round"/>
<path d="M43.5035 13.8269V17.0619" stroke="#9E9E9E" stroke-width="1.5" stroke-linecap="round" stroke-linejoin="round"/>
<path fill-rule="evenodd" clip-rule="evenodd" d="M43.5607 2H34.1893C30.9226 2 28.875 4.31208 28.875 7.58516V16.4148C28.875 19.6879 30.9131 22 34.1893 22H43.5607C46.8369 22 48.875 19.6879 48.875 16.4148V7.58516C48.875 4.31208 46.8369 2 43.5607 2Z" stroke="#9E9E9E" stroke-width="1.5" stroke-linecap="round" stroke-linejoin="round"/>
<path d="M24.2936 36V29H25.1336V36H24.2936ZM31.1773 33.34V36H30.3373V33.36C30.3373 33.05 30.2723 32.7683 30.1423 32.515C30.0123 32.2583 29.8356 32.055 29.6123 31.905C29.389 31.7517 29.1373 31.675 28.8573 31.675C28.5806 31.675 28.334 31.7517 28.1173 31.905C27.904 32.055 27.7356 32.2583 27.6123 32.515C27.489 32.7683 27.4273 33.05 27.4273 33.36V36H26.5873V31H27.4273V31.77C27.6073 31.4867 27.829 31.265 28.0923 31.105C28.359 30.9417 28.6556 30.86 28.9823 30.86C29.4156 30.86 29.7956 30.9733 30.1223 31.2C30.4523 31.4267 30.709 31.7283 30.8923 32.105C31.079 32.4783 31.174 32.89 31.1773 33.34ZM34.0482 36.095C33.7782 36.085 33.5149 36.035 33.2582 35.945C33.0049 35.8517 32.7816 35.7267 32.5882 35.57C32.3982 35.41 32.2599 35.2267 32.1732 35.02L32.8932 34.71C32.9432 34.8233 33.0332 34.93 33.1632 35.03C33.2932 35.13 33.4432 35.21 33.6132 35.27C33.7832 35.33 33.9549 35.36 34.1282 35.36C34.3116 35.36 34.4832 35.3317 34.6432 35.275C34.8032 35.2183 34.9332 35.135 35.0332 35.025C35.1366 34.9117 35.1882 34.7767 35.1882 34.62C35.1882 34.4533 35.1316 34.3233 35.0182 34.23C34.9082 34.1333 34.7682 34.0583 34.5982 34.005C34.4316 33.9483 34.2616 33.895 34.0882 33.845C33.7449 33.7583 33.4382 33.655 33.1682 33.535C32.8982 33.4117 32.6849 33.2567 32.5282 33.07C32.3749 32.88 32.2982 32.6383 32.2982 32.345C32.2982 32.035 32.3832 31.7667 32.5532 31.54C32.7266 31.3133 32.9532 31.1383 33.2332 31.015C33.5132 30.8917 33.8132 30.83 34.1332 30.83C34.5366 30.83 34.9049 30.9167 35.2382 31.09C35.5716 31.2633 35.8199 31.4983 35.9832 31.795L35.3082 32.19C35.2516 32.07 35.1649 31.965 35.0482 31.875C34.9316 31.7817 34.7982 31.7083 34.6482 31.655C34.4982 31.6017 34.3449 31.5733 34.1882 31.57C33.9949 31.5633 33.8132 31.5883 33.6432 31.645C33.4766 31.7017 33.3416 31.7883 33.2382 31.905C33.1382 32.0183 33.0882 32.16 33.0882 32.33C33.0882 32.4967 33.1416 32.6233 33.2482 32.71C33.3582 32.7967 33.4999 32.8667 33.6732 32.92C33.8499 32.97 34.0416 33.0283 34.2482 33.095C34.5516 33.1917 34.8349 33.3033 35.0982 33.43C35.3616 33.5567 35.5732 33.715 35.7332 33.905C35.8966 34.095 35.9766 34.33 35.9732 34.61C35.9732 34.9167 35.8816 35.185 35.6982 35.415C35.5149 35.6417 35.2766 35.815 34.9832 35.935C34.6932 36.055 34.3816 36.1083 34.0482 36.095ZM37.0189 31H37.8589V36H37.0189V31ZM37.4439 30.085C37.3139 30.085 37.2039 30.0417 37.1139 29.955C37.0239 29.8683 36.9789 29.76 36.9789 29.63C36.9789 29.5 37.0239 29.3917 37.1139 29.305C37.2039 29.2183 37.3139 29.175 37.4439 29.175C37.5739 29.175 37.6839 29.2183 37.7739 29.305C37.8639 29.3917 37.9089 29.5 37.9089 29.63C37.9089 29.76 37.8639 29.8683 37.7739 29.955C37.6839 30.0417 37.5739 30.085 37.4439 30.085ZM43.4384 31H44.2784V36.16C44.2784 36.49 44.2067 36.7967 44.0634 37.08C43.9234 37.3667 43.7334 37.615 43.4934 37.825C43.2534 38.0383 42.9801 38.2033 42.6734 38.32C42.3667 38.44 42.0467 38.5 41.7134 38.5C41.3667 38.5 41.0317 38.4217 40.7084 38.265C40.3851 38.1117 40.1017 37.905 39.8584 37.645C39.6184 37.3883 39.4451 37.1 39.3384 36.78L40.1084 36.43C40.1717 36.66 40.2851 36.8667 40.4484 37.05C40.6151 37.2367 40.8084 37.3833 41.0284 37.49C41.2517 37.6 41.4801 37.655 41.7134 37.655C41.9334 37.655 42.1451 37.6167 42.3484 37.54C42.5551 37.4633 42.7401 37.3567 42.9034 37.22C43.0701 37.0867 43.2001 36.9283 43.2934 36.745C43.3901 36.565 43.4384 36.37 43.4384 36.16V35.165C43.2684 35.4517 43.0434 35.685 42.7634 35.865C42.4867 36.0417 42.1634 36.13 41.7934 36.13C41.4401 36.13 41.1084 36.0617 40.7984 35.925C40.4884 35.7883 40.2167 35.6 39.9834 35.36C39.7501 35.1167 39.5667 34.8367 39.4334 34.52C39.3001 34.2033 39.2334 33.8633 39.2334 33.5C39.2334 33.1367 39.3001 32.7967 39.4334 32.48C39.5667 32.16 39.7501 31.88 39.9834 31.64C40.2167 31.3967 40.4884 31.2067 40.7984 31.07C41.1084 30.9333 41.4401 30.865 41.7934 30.865C42.1634 30.865 42.4867 30.9533 42.7634 31.13C43.0434 31.3067 43.2684 31.54 43.4384 31.83V31ZM41.7984 35.315C42.1217 35.315 42.4017 35.2317 42.6384 35.065C42.8784 34.8983 43.0634 34.6767 43.1934 34.4C43.3234 34.1233 43.3884 33.8233 43.3884 33.5C43.3884 33.1667 43.3217 32.8633 43.1884 32.59C43.0584 32.3133 42.8734 32.0933 42.6334 31.93C42.3967 31.7633 42.1184 31.68 41.7984 31.68C41.4851 31.68 41.1984 31.7617 40.9384 31.925C40.6784 32.0883 40.4717 32.3083 40.3184 32.585C40.1684 32.8583 40.0934 33.1633 40.0934 33.5C40.0934 33.8367 40.1701 34.1433 40.3234 34.42C40.4801 34.6933 40.6867 34.9117 40.9434 35.075C41.2034 35.235 41.4884 35.315 41.7984 35.315ZM50.1173 33.345V36H49.2773V33.365C49.2773 33.055 49.2123 32.7717 49.0823 32.515C48.9556 32.2583 48.7823 32.055 48.5623 31.905C48.3456 31.755 48.1056 31.68 47.8423 31.68C47.5656 31.68 47.3223 31.755 47.1123 31.905C46.9056 32.055 46.744 32.2583 46.6273 32.515C46.514 32.7717 46.4573 33.055 46.4573 33.365V36H45.6123V28.5H46.4523V31.7C46.609 31.4067 46.8123 31.195 47.0623 31.065C47.3123 30.9317 47.5956 30.865 47.9123 30.865C48.349 30.865 48.7306 30.9783 49.0573 31.205C49.3873 31.4317 49.644 31.7333 49.8273 32.11C50.014 32.4867 50.1106 32.8983 50.1173 33.345ZM53.9101 31.84H52.7751L52.7701 36H51.9301L51.9351 31.84H51.0751V31H51.9351L51.9301 29.43H52.7701L52.7751 31H53.9101V31.84Z" fill="#9E9E9E"/>
</svg>
