<svg width="78" height="39" viewBox="0 0 78 39" fill="none" xmlns="http://www.w3.org/2000/svg">
<path fill-rule="evenodd" clip-rule="evenodd" d="M34.2054 2H43.5444C46.9454 2 48.8654 3.929 48.8754 7.33V16.67C48.8754 20.07 46.9454 22 43.5444 22H34.2054C30.8044 22 28.8754 20.07 28.8754 16.67V7.33C28.8754 3.929 30.8044 2 34.2054 2ZM38.9244 17.86C39.3554 17.86 39.7144 17.54 39.7544 17.11V6.92C39.7944 6.61 39.6454 6.299 39.3754 6.13C39.0944 5.96 38.7544 5.96 38.4854 6.13C38.2144 6.299 38.0654 6.61 38.0944 6.92V17.11C38.1454 17.54 38.5044 17.86 38.9244 17.86ZM43.5254 17.86C43.9454 17.86 44.3044 17.54 44.3554 17.11V13.83C44.3844 13.509 44.2354 13.21 43.9644 13.04C43.6954 12.87 43.3554 12.87 43.0754 13.04C42.8044 13.21 42.6554 13.509 42.6954 13.83V17.11C42.7354 17.54 43.0944 17.86 43.5254 17.86ZM35.0944 17.11C35.0544 17.54 34.6954 17.86 34.2644 17.86C33.8344 17.86 33.4744 17.54 33.4354 17.11V10.2C33.4054 9.889 33.5544 9.58 33.8254 9.41C34.0944 9.24 34.4354 9.24 34.7054 9.41C34.9744 9.58 35.1254 9.889 35.0944 10.2V17.11Z" fill="#6842FF"/>
<path d="M23.4586 36V29H24.6786V36H23.4586ZM31.0032 33.415V36H29.7832V33.435C29.7832 33.1783 29.7299 32.945 29.6232 32.735C29.5165 32.5217 29.3682 32.3517 29.1782 32.225C28.9915 32.0983 28.7749 32.035 28.5282 32.035C28.2882 32.035 28.0799 32.0983 27.9032 32.225C27.7265 32.3517 27.5899 32.5217 27.4932 32.735C27.3999 32.945 27.3532 33.1783 27.3532 33.435V36H26.1332V31H27.3532V31.59C27.5199 31.3667 27.7182 31.19 27.9482 31.06C28.1815 30.9267 28.4449 30.86 28.7382 30.86C29.1982 30.86 29.5965 30.9767 29.9332 31.21C30.2732 31.44 30.5349 31.7483 30.7182 32.135C30.9049 32.5217 30.9999 32.9483 31.0032 33.415ZM33.8273 36.09C33.5673 36.0733 33.3157 36.0217 33.0723 35.935C32.8323 35.845 32.619 35.7233 32.4323 35.57C32.2457 35.4167 32.1023 35.2333 32.0023 35.02L33.0323 34.58C33.0723 34.6467 33.1373 34.7183 33.2273 34.795C33.3173 34.8683 33.424 34.93 33.5473 34.98C33.674 35.03 33.8123 35.055 33.9623 35.055C34.089 35.055 34.209 35.0383 34.3223 35.005C34.439 34.9683 34.5323 34.9133 34.6023 34.84C34.6757 34.7667 34.7123 34.6717 34.7123 34.555C34.7123 34.4317 34.669 34.3367 34.5823 34.27C34.499 34.2 34.3923 34.1483 34.2623 34.115C34.1357 34.0783 34.0123 34.045 33.8923 34.015C33.5757 33.9517 33.2807 33.8533 33.0073 33.72C32.7373 33.5867 32.519 33.415 32.3523 33.205C32.189 32.9917 32.1073 32.735 32.1073 32.435C32.1073 32.105 32.194 31.82 32.3673 31.58C32.5407 31.34 32.769 31.155 33.0523 31.025C33.3357 30.895 33.6407 30.83 33.9673 30.83C34.364 30.83 34.7273 30.9133 35.0573 31.08C35.3907 31.2433 35.654 31.475 35.8473 31.775L34.8823 32.345C34.8357 32.265 34.7707 32.1917 34.6873 32.125C34.604 32.055 34.509 31.9983 34.4023 31.955C34.2957 31.9083 34.184 31.8817 34.0673 31.875C33.9173 31.8683 33.7807 31.8817 33.6573 31.915C33.534 31.9483 33.434 32.005 33.3573 32.085C33.284 32.165 33.2473 32.2717 33.2473 32.405C33.2473 32.5317 33.2973 32.6267 33.3973 32.69C33.4973 32.75 33.6173 32.7967 33.7573 32.83C33.9007 32.8633 34.0373 32.9 34.1673 32.94C34.4607 33.0367 34.7357 33.155 34.9923 33.295C35.2523 33.435 35.4607 33.6067 35.6173 33.81C35.774 34.0133 35.849 34.2567 35.8423 34.54C35.8423 34.8633 35.7457 35.1467 35.5523 35.39C35.359 35.63 35.109 35.8133 34.8023 35.94C34.499 36.0667 34.174 36.1167 33.8273 36.09ZM36.8285 31H38.0485V36H36.8285V31ZM37.4435 30.255C37.2668 30.255 37.1168 30.1967 36.9935 30.08C36.8702 29.96 36.8085 29.81 36.8085 29.63C36.8085 29.4533 36.8702 29.305 36.9935 29.185C37.1168 29.065 37.2668 29.005 37.4435 29.005C37.6202 29.005 37.7685 29.065 37.8885 29.185C38.0118 29.305 38.0735 29.4533 38.0735 29.63C38.0735 29.81 38.0118 29.96 37.8885 30.08C37.7685 30.1967 37.6202 30.255 37.4435 30.255ZM43.6291 31H44.8491V36.095C44.8491 36.455 44.7758 36.7817 44.6291 37.075C44.4825 37.3717 44.2825 37.625 44.0291 37.835C43.7758 38.0483 43.4858 38.2117 43.1591 38.325C42.8325 38.4417 42.4891 38.5 42.1291 38.5C41.7791 38.5 41.4425 38.4283 41.1191 38.285C40.7958 38.1417 40.5091 37.945 40.2591 37.695C40.0125 37.4483 39.8241 37.1667 39.6941 36.85L40.8091 36.345C40.8758 36.5283 40.9758 36.6883 41.1091 36.825C41.2458 36.965 41.4025 37.0733 41.5791 37.15C41.7558 37.23 41.9391 37.27 42.1291 37.27C42.3225 37.27 42.5075 37.2433 42.6841 37.19C42.8641 37.1367 43.0258 37.0583 43.1691 36.955C43.3125 36.855 43.4241 36.7317 43.5041 36.585C43.5875 36.4417 43.6291 36.2783 43.6291 36.095V35.39C43.4725 35.61 43.2758 35.7883 43.0391 35.925C42.8025 36.0617 42.5291 36.13 42.2191 36.13C41.8591 36.13 41.5225 36.0617 41.2091 35.925C40.8958 35.7883 40.6191 35.6 40.3791 35.36C40.1425 35.1167 39.9558 34.8367 39.8191 34.52C39.6858 34.2033 39.6191 33.8633 39.6191 33.5C39.6191 33.1367 39.6858 32.7967 39.8191 32.48C39.9558 32.1633 40.1425 31.885 40.3791 31.645C40.6191 31.4017 40.8958 31.2117 41.2091 31.075C41.5225 30.9383 41.8591 30.87 42.2191 30.87C42.5291 30.87 42.8025 30.9383 43.0391 31.075C43.2758 31.2083 43.4725 31.385 43.6291 31.605V31ZM42.2341 34.955C42.4908 34.955 42.7175 34.89 42.9141 34.76C43.1141 34.6267 43.2708 34.45 43.3841 34.23C43.4975 34.0067 43.5541 33.7633 43.5541 33.5C43.5541 33.2333 43.4958 32.99 43.3791 32.77C43.2658 32.55 43.1091 32.3733 42.9091 32.24C42.7125 32.1067 42.4875 32.04 42.2341 32.04C41.9841 32.04 41.7558 32.1067 41.5491 32.24C41.3425 32.37 41.1775 32.545 41.0541 32.765C40.9308 32.985 40.8691 33.23 40.8691 33.5C40.8691 33.77 40.9308 34.015 41.0541 34.235C41.1775 34.455 41.3425 34.63 41.5491 34.76C41.7558 34.89 41.9841 34.955 42.2341 34.955ZM50.8598 33.42V36H49.6398V33.44C49.6398 33.1833 49.5864 32.95 49.4798 32.74C49.3764 32.5267 49.2348 32.3567 49.0548 32.23C48.8781 32.1033 48.6814 32.04 48.4648 32.04C48.2181 32.04 48.0131 32.1033 47.8498 32.23C47.6864 32.3567 47.5648 32.5267 47.4848 32.74C47.4048 32.95 47.3648 33.1833 47.3648 33.44V36H46.1348V28.5H47.3548V31.475C47.4781 31.2317 47.6448 31.07 47.8548 30.99C48.0648 30.91 48.3081 30.87 48.5848 30.87C49.0448 30.87 49.4431 30.9867 49.7798 31.22C50.1198 31.45 50.3831 31.7583 50.5698 32.145C50.7564 32.5317 50.8531 32.9567 50.8598 33.42ZM54.7374 32.22H53.7674V36H52.5474V32.22H51.8074V31H52.5474V29.43H53.7674V31H54.7374V32.22Z" fill="#6842FF"/>
</svg>
