<svg width="77" height="38" viewBox="0 0 77 38" fill="none" xmlns="http://www.w3.org/2000/svg">
<path fill-rule="evenodd" clip-rule="evenodd" d="M43.919 7.29105C43.919 10.2281 41.5641 12.5831 38.625 12.5831C35.6869 12.5831 33.331 10.2281 33.331 7.29105C33.331 4.35402 35.6869 2 38.625 2C41.5641 2 43.919 4.35402 43.919 7.29105ZM38.625 22C34.2874 22 30.625 21.295 30.625 18.575C30.625 15.8539 34.3104 15.1739 38.625 15.1739C42.9636 15.1739 46.625 15.8789 46.625 18.599C46.625 21.32 42.9396 22 38.625 22Z" fill="#6842FF"/>
<path d="M24.0693 36V29H26.5693C26.9493 29 27.2927 29.095 27.5993 29.285C27.9093 29.475 28.1543 29.73 28.3343 30.05C28.5143 30.37 28.6043 30.7217 28.6043 31.105C28.6043 31.4983 28.511 31.855 28.3243 32.175C28.141 32.4917 27.8943 32.745 27.5843 32.935C27.2743 33.1217 26.936 33.215 26.5693 33.215H25.2893V36H24.0693ZM25.2893 31.995H26.4393C26.6127 31.995 26.771 31.9517 26.9143 31.865C27.0577 31.7783 27.171 31.6617 27.2543 31.515C27.341 31.3683 27.3843 31.205 27.3843 31.025C27.3843 30.8417 27.341 30.6767 27.2543 30.53C27.171 30.3833 27.0577 30.2667 26.9143 30.18C26.771 30.0933 26.6127 30.05 26.4393 30.05H25.2893V31.995ZM32.6218 32.24C32.5318 32.18 32.4335 32.1317 32.3268 32.095C32.2235 32.0583 32.1085 32.04 31.9818 32.04C31.7385 32.04 31.5285 32.1033 31.3518 32.23C31.1785 32.3567 31.0452 32.5267 30.9518 32.74C30.8585 32.95 30.8118 33.1833 30.8118 33.44V36H29.5818V31H30.8018V31.59C30.9685 31.37 31.1668 31.195 31.3968 31.065C31.6302 30.935 31.8935 30.87 32.1868 30.87C32.3002 30.87 32.4085 30.8733 32.5118 30.88C32.6185 30.8867 32.7202 30.905 32.8168 30.935L32.6218 32.24ZM35.6439 36.13C35.1839 36.13 34.7639 36.0117 34.3839 35.775C34.0073 35.5383 33.7056 35.2217 33.4789 34.825C33.2556 34.425 33.1439 33.9833 33.1439 33.5C33.1439 33.1333 33.2089 32.7917 33.3389 32.475C33.4689 32.155 33.6473 31.875 33.8739 31.635C34.1039 31.3917 34.3706 31.2017 34.6739 31.065C34.9773 30.9283 35.3006 30.86 35.6439 30.86C36.1039 30.86 36.5223 30.9783 36.8989 31.215C37.2789 31.4517 37.5806 31.77 37.8039 32.17C38.0306 32.57 38.1439 33.0133 38.1439 33.5C38.1439 33.8633 38.0789 34.2033 37.9489 34.52C37.8189 34.8367 37.6389 35.1167 37.4089 35.36C37.1823 35.6 36.9173 35.7883 36.6139 35.925C36.3139 36.0617 35.9906 36.13 35.6439 36.13ZM35.6439 34.91C35.8873 34.91 36.1056 34.845 36.2989 34.715C36.4923 34.585 36.6439 34.4133 36.7539 34.2C36.8673 33.9867 36.9239 33.7533 36.9239 33.5C36.9239 33.24 36.8656 33.0033 36.7489 32.79C36.6356 32.5733 36.4806 32.4017 36.2839 32.275C36.0906 32.145 35.8773 32.08 35.6439 32.08C35.4039 32.08 35.1873 32.145 34.9939 32.275C34.8006 32.405 34.6473 32.5783 34.5339 32.795C34.4206 33.0117 34.3639 33.2467 34.3639 33.5C34.3639 33.7633 34.4223 34.0017 34.5389 34.215C34.6556 34.4283 34.8106 34.5983 35.0039 34.725C35.2006 34.8483 35.4139 34.91 35.6439 34.91ZM40.6546 29.95V31H42.0196V32.22H40.6546V36H39.4346V32.22H38.8896V31H39.4346V29.95C39.4346 29.6633 39.5046 29.4017 39.6446 29.165C39.788 28.925 39.9796 28.735 40.2196 28.595C40.4596 28.4517 40.7246 28.38 41.0146 28.38C41.2246 28.38 41.433 28.4233 41.6396 28.51C41.8463 28.5967 42.0296 28.73 42.1896 28.91L41.3096 29.77C41.2796 29.7133 41.2363 29.6717 41.1796 29.645C41.1263 29.615 41.0713 29.6 41.0146 29.6C40.918 29.6 40.833 29.635 40.7596 29.705C40.6896 29.7717 40.6546 29.8533 40.6546 29.95ZM43.0041 31H44.2241V36H43.0041V31ZM43.6191 30.255C43.4424 30.255 43.2924 30.1967 43.1691 30.08C43.0458 29.96 42.9841 29.81 42.9841 29.63C42.9841 29.4533 43.0458 29.305 43.1691 29.185C43.2924 29.065 43.4424 29.005 43.6191 29.005C43.7958 29.005 43.9441 29.065 44.0641 29.185C44.1874 29.305 44.2491 29.4533 44.2491 29.63C44.2491 29.81 44.1874 29.96 44.0641 30.08C43.9441 30.1967 43.7958 30.255 43.6191 30.255ZM46.1297 36V28.5H47.3497V36H46.1297ZM50.985 36.13C50.525 36.13 50.105 36.0117 49.725 35.775C49.3483 35.5383 49.0466 35.22 48.82 34.82C48.5966 34.42 48.485 33.9783 48.485 33.495C48.485 33.1317 48.55 32.7917 48.68 32.475C48.81 32.155 48.9883 31.875 49.215 31.635C49.445 31.3917 49.7116 31.2017 50.015 31.065C50.3183 30.9283 50.6416 30.86 50.985 30.86C51.375 30.86 51.7316 30.9433 52.055 31.11C52.3816 31.2733 52.6583 31.4983 52.885 31.785C53.1116 32.0717 53.2766 32.3983 53.38 32.765C53.4833 33.1317 53.5066 33.515 53.45 33.915H49.795C49.8416 34.1017 49.9183 34.27 50.025 34.42C50.1316 34.5667 50.2666 34.685 50.43 34.775C50.5933 34.8617 50.7783 34.9067 50.985 34.91C51.1983 34.9133 51.3916 34.8633 51.565 34.76C51.7416 34.6533 51.8883 34.51 52.005 34.33L53.25 34.62C53.0466 35.0633 52.7433 35.4267 52.34 35.71C51.9366 35.99 51.485 36.13 50.985 36.13ZM49.755 33H52.215C52.1783 32.8 52.1 32.62 51.98 32.46C51.8633 32.2967 51.7183 32.1667 51.545 32.07C51.3716 31.9733 51.185 31.925 50.985 31.925C50.785 31.925 50.6 31.9733 50.43 32.07C50.26 32.1633 50.115 32.2917 49.995 32.455C49.8783 32.615 49.7983 32.7967 49.755 33Z" fill="#6842FF"/>
</svg>
