<svg width="32" height="32" viewBox="0 0 32 32" fill="none" xmlns="http://www.w3.org/2000/svg">
<rect width="32" height="32" fill="#E5E5E5"/>
<rect width="1755" height="5941" transform="translate(-1152 -4054)" fill="white"/>
<rect width="32" height="32" rx="12" fill="url(#paint0_linear_3_2)"/>
<path d="M21.428 10.8695C20.4915 10.3949 19.4093 10.7844 19.1049 11.7058C19.0264 11.9432 19.0187 12.3257 19.0187 16.0027C19.0187 19.4354 19.0299 20.0721 19.0933 20.261C19.3261 20.9536 19.8702 21.3368 20.6154 21.3331C21.2036 21.3303 21.6281 21.1216 21.9193 20.6922L21.936 20.6679L21.9454 20.6541L21.9459 20.6534L21.9466 20.6523C21.9569 20.6372 21.9669 20.6227 21.9764 20.6086C21.9809 20.6018 21.9854 20.5951 21.9898 20.5885C22.0051 20.5653 22.0193 20.5426 22.0325 20.5193C22.2092 20.2087 22.2092 19.7862 22.2091 16.3945L22.2091 16.0025C22.2093 12.289 22.2023 11.945 22.1212 11.6997C21.999 11.3301 21.7512 11.0333 21.428 10.8695Z" fill="white"/>
<path d="M23.1134 12.1759C23.5222 12.1738 23.7226 12.2098 23.9581 12.3275C24.2016 12.4492 24.4067 12.6979 24.5147 13.0025C24.5868 13.2057 24.5966 13.5631 24.5965 16.0027V16.1878C24.5967 18.5697 24.5967 18.9865 24.4084 19.2574C24.3636 19.3218 24.3083 19.378 24.2397 19.4503C23.9728 19.732 23.7416 19.8152 23.2001 19.8245C22.9701 19.8284 22.7816 19.6327 22.7815 19.3899L22.7795 12.5301C22.7795 12.3352 22.9287 12.1769 23.1134 12.1759Z" fill="white"/>
<path d="M25.5012 14.8589C25.8446 14.8674 26.0188 14.9062 26.1907 15.0124C26.3626 15.1186 26.536 15.3752 26.6108 15.6344C26.7381 16.0756 26.6453 16.5237 26.3643 16.8246C26.1443 17.0602 25.9444 17.1354 25.5097 17.1462C25.3208 17.1509 25.1652 16.9906 25.1652 16.7912V15.2053C25.1652 15.0107 25.317 14.8543 25.5012 14.8589Z" fill="white"/>
<path d="M11.3886 10.6759C11.7283 10.6759 12.0051 10.7485 12.2749 10.9084C12.5461 11.0691 12.7828 11.3694 12.8959 11.6965C12.9822 11.9456 12.9877 12.2135 12.9858 16.0005L12.9856 16.3681C12.9841 19.7785 12.9839 20.1983 12.8114 20.5128C12.7872 20.5569 12.7595 20.599 12.7281 20.647C12.7202 20.6589 12.7122 20.6712 12.7039 20.684C12.4262 21.1109 11.9823 21.3302 11.39 21.3331C10.6424 21.3368 10.101 20.9554 9.86809 20.2609C9.80474 20.0721 9.79354 19.4316 9.7934 16.0025C9.79325 12.3241 9.80086 11.9432 9.8794 11.7057C10.0919 11.0632 10.6595 10.6759 11.3886 10.6759Z" fill="white"/>
<path d="M8.78614 12.1795C8.2585 12.1922 8.02568 12.2776 7.76281 12.555L7.74106 12.5779C7.68251 12.6395 7.63401 12.6905 7.59414 12.7479C7.40585 13.0188 7.40587 13.4355 7.40601 15.8164V16.1889C7.40587 18.5698 7.40585 18.9865 7.59414 19.2574C7.63402 19.3148 7.68234 19.3657 7.7409 19.4273L7.74132 19.4277L7.76281 19.4503C8.02974 19.732 8.26098 19.8152 8.80238 19.8245C9.03244 19.8285 9.22094 19.6327 9.22101 19.39L9.2221 16.0175C9.22246 14.8462 9.21783 14.2149 9.21368 13.6477L9.21366 13.6435C9.21126 13.3158 9.20902 13.0091 9.20799 12.6316C9.20731 12.3848 9.01991 12.1738 8.78614 12.1795Z" fill="white"/>
<path d="M5.9839 14.9342C6.08174 14.8946 6.30755 14.8592 6.48571 14.8553C6.67522 14.8513 6.82662 15.0233 6.82931 15.2233C6.83305 15.5009 6.83544 15.5852 6.83687 15.6355C6.83873 15.7013 6.83896 15.7093 6.83843 16.0183L6.83705 16.8C6.83671 16.9946 6.6839 17.1505 6.49952 17.1442C6.05029 17.1287 5.85062 17.0547 5.63472 16.8234C5.10802 16.2593 5.30191 15.2101 5.9839 14.9342Z" fill="white"/>
<path d="M13.4514 15.9825C13.4514 15.3488 13.9382 14.8352 14.5387 14.8352H17.4379C18.0384 14.8352 18.5251 15.3488 18.5251 15.9825C18.5251 16.6162 18.0384 17.1299 17.4379 17.1299H14.5387C13.9382 17.1299 13.4514 16.6162 13.4514 15.9825Z" fill="white"/>
<rect x="-39.5" y="-255.5" width="462" height="308" rx="4.5" stroke="#7B61FF" stroke-dasharray="10 5"/>
<defs>
<linearGradient id="paint0_linear_3_2" x1="32" y1="32" x2="-6.07713" y2="20.9599" gradientUnits="userSpaceOnUse">
<stop stop-color="#6842FF"/>
<stop offset="1" stop-color="#896BFF"/>
</linearGradient>
</defs>
</svg>
