<svg width="25" height="24" viewBox="0 0 25 24" fill="none" xmlns="http://www.w3.org/2000/svg">
<g clip-path="url(#clip0_70_2210)">
<path d="M24.0078 12.2245C24.0078 11.2413 23.9295 10.5238 23.7598 9.77966H12.7295V14.2176H19.2041C19.0736 15.3205 18.3687 16.9815 16.8022 18.0976L16.7802 18.2462L20.2678 20.9964L20.5095 21.0209C22.7285 18.9347 24.0078 15.8653 24.0078 12.2245Z" fill="#4285F4"/>
<path d="M12.7294 23.9176C15.9014 23.9176 18.5643 22.8545 20.5094 21.0209L16.8021 18.0976C15.8101 18.8018 14.4786 19.2934 12.7294 19.2934C9.62268 19.2934 6.98586 17.2074 6.0459 14.324L5.90813 14.3359L2.28168 17.1927L2.23425 17.3269C4.16618 21.2334 8.1345 23.9176 12.7294 23.9176Z" fill="#34A853"/>
<path d="M6.04609 14.3239C5.79808 13.5798 5.65454 12.7825 5.65454 11.9587C5.65454 11.1349 5.79808 10.3376 6.03304 9.59354L6.02647 9.43507L2.35458 6.53235L2.23444 6.59052C1.43821 8.21162 0.981323 10.032 0.981323 11.9587C0.981323 13.8854 1.43821 15.7058 2.23444 17.3269L6.04609 14.3239Z" fill="#FBBC05"/>
<path d="M12.7294 4.62403C14.9355 4.62403 16.4235 5.59401 17.2721 6.40461L20.5877 3.10928C18.5514 1.1826 15.9014 0 12.7294 0C8.13449 0 4.16617 2.68406 2.23425 6.59056L6.03285 9.59359C6.98585 6.7102 9.62267 4.62403 12.7294 4.62403Z" fill="#EB4335"/>
</g>
<defs>
<clipPath id="clip0_70_2210">
<rect width="23.04" height="24" fill="white" transform="translate(0.97998)"/>
</clipPath>
</defs>
</svg>
