<svg width="77" height="38" viewBox="0 0 77 38" fill="none" xmlns="http://www.w3.org/2000/svg">
<path d="M35.5322 20.7714V17.7047C35.5322 16.9246 36.1681 16.2908 36.956 16.2856H39.8421C40.6337 16.2856 41.2755 16.9209 41.2755 17.7047V17.7047V20.7809C41.2753 21.4432 41.8093 21.9845 42.478 22H44.4021C46.3201 22 47.875 20.4607 47.875 18.5618V18.5618V9.83784C47.8648 9.09083 47.5105 8.38935 46.913 7.93303L40.3327 2.6853C39.1799 1.77157 37.5412 1.77157 36.3884 2.6853L29.837 7.94256C29.2373 8.39702 28.8824 9.09967 28.875 9.84736V18.5618C28.875 20.4607 30.4299 22 32.3479 22H34.272C34.9574 22 35.513 21.4499 35.513 20.7714V20.7714" stroke="#9E9E9E" stroke-width="1.5" stroke-linecap="round" stroke-linejoin="round"/>
<path d="M30.0845 29H30.9245V36H30.0845V32.67H26.6195V36H25.7795V29H26.6195V31.83H30.0845V29ZM34.41 36.13C33.95 36.13 33.53 36.0117 33.15 35.775C32.7733 35.5383 32.4716 35.2217 32.245 34.825C32.0216 34.425 31.91 33.9833 31.91 33.5C31.91 33.1333 31.975 32.7917 32.105 32.475C32.235 32.155 32.4133 31.875 32.64 31.635C32.87 31.3917 33.1366 31.2017 33.44 31.065C33.7433 30.9283 34.0666 30.86 34.41 30.86C34.87 30.86 35.2883 30.9783 35.665 31.215C36.045 31.4517 36.3466 31.77 36.57 32.17C36.7966 32.57 36.91 33.0133 36.91 33.5C36.91 33.8633 36.845 34.2033 36.715 34.52C36.585 34.8367 36.405 35.1167 36.175 35.36C35.9483 35.6 35.6833 35.7883 35.38 35.925C35.08 36.0617 34.7566 36.13 34.41 36.13ZM34.41 35.29C34.7233 35.29 35.005 35.2083 35.255 35.045C35.5083 34.8783 35.7066 34.66 35.85 34.39C35.9966 34.1167 36.07 33.82 36.07 33.5C36.07 33.1733 35.995 32.8733 35.845 32.6C35.6983 32.3267 35.5 32.1083 35.25 31.945C35 31.7817 34.72 31.7 34.41 31.7C34.0966 31.7 33.815 31.7833 33.565 31.95C33.315 32.1133 33.1166 32.3317 32.97 32.605C32.8233 32.8783 32.75 33.1767 32.75 33.5C32.75 33.8333 32.825 34.1367 32.975 34.41C33.125 34.68 33.3266 34.895 33.58 35.055C33.8333 35.2117 34.11 35.29 34.41 35.29ZM37.7923 36V31H38.6323V31.725C38.799 31.4817 38.979 31.2867 39.1723 31.14C39.3656 30.99 39.6073 30.915 39.8973 30.915C40.2906 30.915 40.6323 31.01 40.9223 31.2C41.2123 31.39 41.4473 31.65 41.6273 31.98C41.8106 31.6467 42.049 31.3867 42.3423 31.2C42.6356 31.01 42.9756 30.915 43.3623 30.915C43.7856 30.915 44.154 31.0233 44.4673 31.24C44.784 31.4567 45.029 31.745 45.2023 32.105C45.379 32.465 45.4673 32.86 45.4673 33.29V36H44.6273V33.29C44.6273 33.0067 44.5756 32.75 44.4723 32.52C44.3723 32.2867 44.2273 32.1017 44.0373 31.965C43.8506 31.825 43.6256 31.755 43.3623 31.755C43.099 31.755 42.869 31.825 42.6723 31.965C42.4756 32.1017 42.3223 32.2867 42.2123 32.52C42.1023 32.75 42.0473 33.0067 42.0473 33.29V36H41.2073V33.29C41.2073 33.0067 41.1523 32.75 41.0423 32.52C40.9323 32.2867 40.779 32.1017 40.5823 31.965C40.3856 31.825 40.1573 31.755 39.8973 31.755C39.6506 31.755 39.4323 31.8283 39.2423 31.975C39.0523 32.1217 38.9023 32.3167 38.7923 32.56C38.6856 32.8 38.6323 33.0617 38.6323 33.345V36H37.7923ZM48.7748 36.13C48.3148 36.13 47.8948 36.0117 47.5148 35.775C47.1381 35.5383 46.8365 35.2217 46.6098 34.825C46.3865 34.425 46.2748 33.9833 46.2748 33.5C46.2748 33.1333 46.3398 32.7917 46.4698 32.475C46.5998 32.155 46.7781 31.875 47.0048 31.635C47.2348 31.3917 47.5015 31.2017 47.8048 31.065C48.1081 30.9283 48.4315 30.86 48.7748 30.86C49.1515 30.86 49.4965 30.9367 49.8098 31.09C50.1265 31.24 50.3965 31.45 50.6198 31.72C50.8465 31.99 51.0148 32.3033 51.1248 32.66C51.2381 33.0167 51.2798 33.3983 51.2498 33.805H47.1698C47.2098 34.0883 47.3031 34.3417 47.4498 34.565C47.5965 34.785 47.7831 34.96 48.0098 35.09C48.2398 35.22 48.4948 35.2867 48.7748 35.29C49.0748 35.29 49.3465 35.2133 49.5898 35.06C49.8331 34.9033 50.0298 34.69 50.1798 34.42L51.0348 34.62C50.8348 35.0633 50.5331 35.4267 50.1298 35.71C49.7265 35.99 49.2748 36.13 48.7748 36.13ZM47.1448 33.145H50.4048C50.3781 32.865 50.2881 32.61 50.1348 32.38C49.9815 32.1467 49.7865 31.96 49.5498 31.82C49.3131 31.68 49.0548 31.61 48.7748 31.61C48.4948 31.61 48.2381 31.6783 48.0048 31.815C47.7715 31.9517 47.5781 32.1367 47.4248 32.37C47.2748 32.6 47.1815 32.8583 47.1448 33.145Z" fill="#9E9E9E"/>
</svg>
