<svg width="77" height="38" viewBox="0 0 77 38" fill="none" xmlns="http://www.w3.org/2000/svg">
<path fill-rule="evenodd" clip-rule="evenodd" d="M38.6099 15.3462C34.7423 15.3462 31.4395 15.931 31.4395 18.2729C31.4395 20.6148 34.7214 21.2205 38.6099 21.2205C42.4775 21.2205 45.7795 20.6348 45.7795 18.2938C45.7795 15.9529 42.4985 15.3462 38.6099 15.3462Z" stroke="#9E9E9E" stroke-width="1.5" stroke-linecap="round" stroke-linejoin="round"/>
<path fill-rule="evenodd" clip-rule="evenodd" d="M38.6099 12.0059C41.148 12.0059 43.2051 9.94779 43.2051 7.40969C43.2051 4.8716 41.148 2.81445 38.6099 2.81445C36.0718 2.81445 34.0137 4.8716 34.0137 7.40969C34.0051 9.93922 36.0489 11.9973 38.5775 12.0059H38.6099Z" stroke="#9E9E9E" stroke-width="1.42857" stroke-linecap="round" stroke-linejoin="round"/>
<path d="M24.8018 36V29H27.1118C27.4884 29 27.8268 29.0917 28.1268 29.275C28.4301 29.4583 28.6701 29.7067 28.8468 30.02C29.0268 30.33 29.1168 30.6767 29.1168 31.06C29.1168 31.45 29.0251 31.8017 28.8418 32.115C28.6618 32.425 28.4184 32.6717 28.1118 32.855C27.8084 33.035 27.4751 33.125 27.1118 33.125H25.6418V36H24.8018ZM25.6418 32.285H27.0368C27.2634 32.285 27.4701 32.23 27.6568 32.12C27.8468 32.0067 27.9968 31.855 28.1068 31.665C28.2201 31.4717 28.2768 31.255 28.2768 31.015C28.2768 30.7717 28.2201 30.555 28.1068 30.365C27.9968 30.1717 27.8468 30.02 27.6568 29.91C27.4701 29.7967 27.2634 29.74 27.0368 29.74H25.6418V32.285ZM33.0375 31.83C32.9542 31.7833 32.8642 31.7467 32.7675 31.72C32.6709 31.6933 32.5659 31.68 32.4525 31.68C32.1759 31.68 31.9292 31.755 31.7125 31.905C31.4992 32.055 31.3309 32.2583 31.2075 32.515C31.0842 32.7717 31.0225 33.055 31.0225 33.365V36H30.1775V31H31.0175V31.77C31.1975 31.49 31.4209 31.27 31.6875 31.11C31.9542 30.9467 32.2492 30.865 32.5725 30.865C32.6825 30.865 32.7875 30.87 32.8875 30.88C32.9875 30.89 33.0825 30.91 33.1725 30.94L33.0375 31.83ZM35.9662 36.13C35.5062 36.13 35.0862 36.0117 34.7062 35.775C34.3295 35.5383 34.0279 35.2217 33.8012 34.825C33.5779 34.425 33.4662 33.9833 33.4662 33.5C33.4662 33.1333 33.5312 32.7917 33.6612 32.475C33.7912 32.155 33.9695 31.875 34.1962 31.635C34.4262 31.3917 34.6929 31.2017 34.9962 31.065C35.2995 30.9283 35.6229 30.86 35.9662 30.86C36.4262 30.86 36.8445 30.9783 37.2212 31.215C37.6012 31.4517 37.9029 31.77 38.1262 32.17C38.3529 32.57 38.4662 33.0133 38.4662 33.5C38.4662 33.8633 38.4012 34.2033 38.2712 34.52C38.1412 34.8367 37.9612 35.1167 37.7312 35.36C37.5045 35.6 37.2395 35.7883 36.9362 35.925C36.6362 36.0617 36.3129 36.13 35.9662 36.13ZM35.9662 35.29C36.2795 35.29 36.5612 35.2083 36.8112 35.045C37.0645 34.8783 37.2629 34.66 37.4062 34.39C37.5529 34.1167 37.6262 33.82 37.6262 33.5C37.6262 33.1733 37.5512 32.8733 37.4012 32.6C37.2545 32.3267 37.0562 32.1083 36.8062 31.945C36.5562 31.7817 36.2762 31.7 35.9662 31.7C35.6529 31.7 35.3712 31.7833 35.1212 31.95C34.8712 32.1133 34.6729 32.3317 34.5262 32.605C34.3795 32.8783 34.3062 33.1767 34.3062 33.5C34.3062 33.8333 34.3812 34.1367 34.5312 34.41C34.6812 34.68 34.8829 34.895 35.1362 35.055C35.3895 35.2117 35.6662 35.29 35.9662 35.29ZM40.6969 29.765V31H42.1619V31.84H40.6969V36H39.8569V31.84H39.2119V31H39.8569V29.765C39.8569 29.5083 39.9186 29.2767 40.0419 29.07C40.1686 28.86 40.3369 28.6933 40.5469 28.57C40.7602 28.4433 40.9936 28.38 41.2469 28.38C41.4336 28.38 41.6152 28.4183 41.7919 28.495C41.9686 28.5683 42.1252 28.6783 42.2619 28.825L41.6619 29.42C41.6152 29.3567 41.5536 29.3083 41.4769 29.275C41.4036 29.2383 41.3269 29.22 41.2469 29.22C41.0969 29.22 40.9669 29.2733 40.8569 29.38C40.7502 29.4867 40.6969 29.615 40.6969 29.765ZM43.1311 31H43.9711V36H43.1311V31ZM43.5561 30.085C43.4261 30.085 43.3161 30.0417 43.2261 29.955C43.1361 29.8683 43.0911 29.76 43.0911 29.63C43.0911 29.5 43.1361 29.3917 43.2261 29.305C43.3161 29.2183 43.4261 29.175 43.5561 29.175C43.6861 29.175 43.7961 29.2183 43.8861 29.305C43.9761 29.3917 44.0211 29.5 44.0211 29.63C44.0211 29.76 43.9761 29.8683 43.8861 29.955C43.7961 30.0417 43.6861 30.085 43.5561 30.085ZM45.7305 36V28.5H46.5655V36H45.7305ZM50.2525 36.13C49.7925 36.13 49.3725 36.0117 48.9925 35.775C48.6159 35.5383 48.3142 35.2217 48.0875 34.825C47.8642 34.425 47.7525 33.9833 47.7525 33.5C47.7525 33.1333 47.8175 32.7917 47.9475 32.475C48.0775 32.155 48.2559 31.875 48.4825 31.635C48.7125 31.3917 48.9792 31.2017 49.2825 31.065C49.5859 30.9283 49.9092 30.86 50.2525 30.86C50.6292 30.86 50.9742 30.9367 51.2875 31.09C51.6042 31.24 51.8742 31.45 52.0975 31.72C52.3242 31.99 52.4925 32.3033 52.6025 32.66C52.7159 33.0167 52.7575 33.3983 52.7275 33.805H48.6475C48.6875 34.0883 48.7809 34.3417 48.9275 34.565C49.0742 34.785 49.2609 34.96 49.4875 35.09C49.7175 35.22 49.9725 35.2867 50.2525 35.29C50.5525 35.29 50.8242 35.2133 51.0675 35.06C51.3109 34.9033 51.5075 34.69 51.6575 34.42L52.5125 34.62C52.3125 35.0633 52.0109 35.4267 51.6075 35.71C51.2042 35.99 50.7525 36.13 50.2525 36.13ZM48.6225 33.145H51.8825C51.8559 32.865 51.7659 32.61 51.6125 32.38C51.4592 32.1467 51.2642 31.96 51.0275 31.82C50.7909 31.68 50.5325 31.61 50.2525 31.61C49.9725 31.61 49.7159 31.6783 49.4825 31.815C49.2492 31.9517 49.0559 32.1367 48.9025 32.37C48.7525 32.6 48.6592 32.8583 48.6225 33.145Z" fill="#9E9E9E"/>
</svg>
